<svg xmlns="http://www.w3.org/2000/svg" width="600" height="200" viewBox="0 0 600 200"><rect width="100%" height="100%" fill="#fff"/><rect x="2.2" y="2.2" width="595.6" height="195.6" rx="8.0" fill="none" stroke="#000" stroke-width="2.2"/><path d="M 432.0 2.2 L 597.8 2.2 L 597.8 56.00000000000001 Z" fill="#000"/>
        <text x="12.0" y="38.0" font-family="Poppins,Arial,sans-serif" font-weight="700" font-size="26.0">ITEM CODE</text>
        <text x="12.0" y="88.0" font-family="Arial,sans-serif" font-size="16.900000000000002">GROSS WT: 8.25g</text>
        <text x="12.0" y="120.0" font-family="Arial,sans-serif" font-size="12.48">NET WT: 7.90g</text>
        <text x="12.0" y="146.0" font-family="Arial,sans-serif" font-size="12.48">ITEM: RG102</text><rect x="12.00" y="163.04" width="8.00" height="18.72" fill="#000"/><rect x="36.00" y="163.04" width="8.00" height="18.72" fill="#000"/><rect x="52.00" y="163.04" width="24.00" height="18.72" fill="#000"/><rect x="84.00" y="163.04" width="16.00" height="18.72" fill="#000"/><rect x="108.00" y="163.04" width="8.00" height="18.72" fill="#000"/><rect x="132.00" y="163.04" width="24.00" height="18.72" fill="#000"/><rect x="164.00" y="163.04" width="8.00" height="18.72" fill="#000"/><rect x="188.00" y="163.04" width="8.00" height="18.72" fill="#000"/><rect x="220.00" y="163.04" width="16.00" height="18.72" fill="#000"/><rect x="244.00" y="163.04" width="8.00" height="18.72" fill="#000"/><rect x="268.00" y="163.04" width="8.00" height="18.72" fill="#000"/><rect x="284.00" y="163.04" width="24.00" height="18.72" fill="#000"/></svg>