<svg xmlns="http://www.w3.org/2000/svg" width="600" height="200" viewBox="0 0 600 200"><rect width="100%" height="100%" fill="#fff"/><rect x="2.2" y="2.2" width="595.6" height="195.6" rx="8.0" fill="none" stroke="#000" stroke-width="2.2"/><path d="M 432.0 2.2 L 597.8 2.2 L 597.8 56.00000000000001 Z" fill="#000"/>
        <text x="12.0" y="38.0" font-family="Poppins,Arial,sans-serif" font-weight="700" font-size="26.0">FEEDBACK QR</text>
        <text x="12.0" y="88.0" font-family="Arial,sans-serif" font-size="16.900000000000002">SCAN ME</text>
        <text x="12.0" y="120.0" font-family="Arial,sans-serif" font-size="12.48">Order • Pay • Follow</text>
        <text x="12.0" y="146.0" font-family="Arial,sans-serif" font-size="12.48">@easylabel</text><rect x="549.33" y="155.11" width="5.78" height="5.78" fill="#000"/><rect x="572.44" y="149.33" width="5.78" height="5.78" fill="#000"/><rect x="566.67" y="155.11" width="5.78" height="5.78" fill="#000"/><rect x="572.44" y="160.89" width="5.78" height="5.78" fill="#000"/><rect x="532.00" y="178.22" width="5.78" height="5.78" fill="#000"/><rect x="543.56" y="132.00" width="5.78" height="5.78" fill="#000"/><rect x="566.67" y="178.22" width="5.78" height="5.78" fill="#000"/><rect x="543.56" y="143.56" width="5.78" height="5.78" fill="#000"/><rect x="532.00" y="137.78" width="5.78" height="5.78" fill="#000"/><rect x="566.67" y="137.78" width="5.78" height="5.78" fill="#000"/><rect x="578.22" y="132.00" width="5.78" height="5.78" fill="#000"/><rect x="578.22" y="143.56" width="5.78" height="5.78" fill="#000"/><rect x="543.56" y="166.67" width="5.78" height="5.78" fill="#000"/><rect x="572.44" y="172.44" width="5.78" height="5.78" fill="#000"/><rect x="578.22" y="166.67" width="5.78" height="5.78" fill="#000"/><rect x="549.33" y="149.33" width="5.78" height="5.78" fill="#000"/><rect x="578.22" y="155.11" width="5.78" height="5.78" fill="#000"/><rect x="549.33" y="160.89" width="5.78" height="5.78" fill="#000"/><rect x="543.56" y="178.22" width="5.78" height="5.78" fill="#000"/><rect x="537.78" y="132.00" width="5.78" height="5.78" fill="#000"/><rect x="572.44" y="132.00" width="5.78" height="5.78" fill="#000"/><rect x="572.44" y="143.56" width="5.78" height="5.78" fill="#000"/><rect x="537.78" y="166.67" width="5.78" height="5.78" fill="#000"/><rect x="532.00" y="172.44" width="5.78" height="5.78" fill="#000"/><rect x="578.22" y="137.78" width="5.78" height="5.78" fill="#000"/><rect x="555.11" y="166.67" width="5.78" height="5.78" fill="#000"/><rect x="537.78" y="155.11" width="5.78" height="5.78" fill="#000"/><rect x="560.89" y="149.33" width="5.78" height="5.78" fill="#000"/><rect x="555.11" y="155.11" width="5.78" height="5.78" fill="#000"/><rect x="560.89" y="160.89" width="5.78" height="5.78" fill="#000"/><rect x="532.00" y="132.00" width="5.78" height="5.78" fill="#000"/><rect x="537.78" y="178.22" width="5.78" height="5.78" fill="#000"/><rect x="532.00" y="143.56" width="5.78" height="5.78" fill="#000"/><rect x="566.67" y="132.00" width="5.78" height="5.78" fill="#000"/><rect x="566.67" y="143.56" width="5.78" height="5.78" fill="#000"/><rect x="543.56" y="172.44" width="5.78" height="5.78" fill="#000"/><rect x="532.00" y="166.67" width="5.78" height="5.78" fill="#000"/><rect x="566.67" y="166.67" width="5.78" height="5.78" fill="#000"/><rect x="560.89" y="172.44" width="5.78" height="5.78" fill="#000"/></svg>