<svg xmlns="http://www.w3.org/2000/svg" width="400" height="200" viewBox="0 0 400 200"><rect width="100%" height="100%" fill="#fff"/><rect x="2.2" y="2.2" width="395.6" height="195.6" rx="8.0" fill="none" stroke="#000" stroke-width="2.2"/><path d="M 288.0 2.2 L 397.8 2.2 L 397.8 56.00000000000001 Z" fill="#000"/>
        <text x="12.0" y="38.0" font-family="Poppins,Arial,sans-serif" font-weight="700" font-size="26.0">GARDEN TAG</text>
        <text x="12.0" y="88.0" font-family="Arial,sans-serif" font-size="16.900000000000002">PLANT: BASIL</text>
        <text x="12.0" y="120.0" font-family="Arial,sans-serif" font-size="12.48">WATER: 2× WEEK</text>
        <text x="12.0" y="146.0" font-family="Arial,sans-serif" font-size="12.48">SUNLIGHT: MEDIUM</text><rect x="12.00" y="163.04" width="5.33" height="18.72" fill="#000"/><rect x="28.00" y="163.04" width="5.33" height="18.72" fill="#000"/><rect x="38.67" y="163.04" width="16.00" height="18.72" fill="#000"/><rect x="60.00" y="163.04" width="10.67" height="18.72" fill="#000"/><rect x="76.00" y="163.04" width="5.33" height="18.72" fill="#000"/><rect x="92.00" y="163.04" width="16.00" height="18.72" fill="#000"/><rect x="113.33" y="163.04" width="5.33" height="18.72" fill="#000"/><rect x="129.33" y="163.04" width="5.33" height="18.72" fill="#000"/><rect x="150.67" y="163.04" width="10.67" height="18.72" fill="#000"/><rect x="166.67" y="163.04" width="5.33" height="18.72" fill="#000"/><rect x="182.67" y="163.04" width="5.33" height="18.72" fill="#000"/><rect x="193.33" y="163.04" width="16.00" height="18.72" fill="#000"/>
        <g opacity="1">
          <path d="M 8 18 H 72.0" stroke="#000" stroke-width="2"/>
          <path d="M 392.0 182.0 H 328.0" stroke="#000" stroke-width="2"/>
          <circle cx="387.0" cy="13" r="3" fill="#000"/>
          <circle cx="13" cy="187.0" r="3" fill="#000"/>
        </g></svg>